<?xml version="1.0" standalone="no"?>
<!DOCTYPE svg PUBLIC "-//W3C//DTD SVG 20010904//EN"
 "http://www.w3.org/TR/2001/REC-SVG-20010904/DTD/svg10.dtd">
<svg version="1.0" xmlns="http://www.w3.org/2000/svg"
 width="1000.000000pt" height="1000.000000pt" viewBox="0 0 1000.000000 1000.000000"
 preserveAspectRatio="xMidYMid meet">
<metadata>
Created by potrace 1.11, written by Peter Selinger 2001-2013
</metadata>
<g transform="translate(0.000000,1000.000000) scale(0.100000,-0.100000)"
fill="#000000" stroke="none">
<path d="M4950 9509 c-30 -18 -60 -48 -120 -116 -6 -7 -8 -13 -5 -13 3 0 -3
-9 -12 -19 -33 -36 -43 -50 -43 -60 0 -5 -6 -16 -13 -23 -7 -7 -28 -33 -47
-58 -19 -25 -42 -53 -50 -64 -33 -41 -144 -146 -157 -147 -17 -2 -24 -3 -51
-13 -12 -4 -34 -9 -50 -11 -15 -2 -27 -4 -27 -5 0 -1 -9 -3 -20 -5 -83 -15
-386 -118 -452 -154 -10 -5 -44 -22 -76 -36 l-58 -26 -1472 -4 c-810 -3 -1508
-7 -1551 -9 -136 -8 -252 -16 -273 -20 -11 -3 -38 -7 -59 -10 -135 -21 -211
-68 -259 -161 -25 -49 -93 -230 -110 -295 -2 -8 -12 -42 -22 -75 -24 -83 -23
-375 1 -445 3 -8 7 -31 10 -50 11 -74 19 -106 46 -184 15 -45 54 -155 85 -246
31 -91 63 -178 70 -195 38 -86 71 -181 79 -230 3 -16 10 -45 15 -64 6 -18 10
-36 9 -40 -1 -3 1 -13 5 -21 16 -42 49 -136 51 -145 1 -5 8 -20 14 -32 7 -13
9 -23 5 -23 -4 0 -2 -4 5 -9 7 -4 14 -14 16 -22 2 -14 65 -138 106 -208 10
-19 25 -38 32 -43 7 -4 10 -8 6 -8 -14 0 35 -50 49 -50 7 0 13 -4 13 -8 0 -5
11 -22 25 -38 14 -16 47 -74 74 -129 27 -55 62 -112 78 -126 58 -54 150 -82
318 -94 124 -10 155 -14 167 -21 7 -5 8 -3 3 6 -5 9 -4 11 3 6 11 -7 41 -9
337 -21 77 -3 174 -8 215 -10 41 -3 117 -7 168 -10 51 -2 97 -7 102 -10 5 -3
11 -1 15 5 4 6 12 7 18 3 7 -4 26 -9 42 -9 45 -3 126 -12 160 -20 17 -3 41 -7
54 -9 13 -1 27 -9 33 -16 12 -19 3 -90 -14 -100 -7 -5 -10 -9 -5 -9 7 0 -46
-106 -104 -205 -43 -74 -133 -257 -137 -280 -5 -30 -10 -50 -12 -50 -1 0 -3
-8 -5 -17 -2 -10 0 -18 4 -18 5 0 6 -12 3 -26 -3 -17 2 -31 16 -44 19 -18 34
-24 92 -34 14 -3 34 -7 46 -10 26 -5 173 -22 274 -31 25 -2 59 -6 75 -8 17 -3
64 -8 105 -12 137 -11 152 -15 174 -43 73 -94 356 -356 449 -415 16 -10 40
-28 54 -40 13 -12 27 -20 30 -19 3 2 9 0 12 -5 9 -13 100 -73 112 -73 5 0 9
-5 9 -12 0 -6 3 -9 6 -5 4 3 21 -5 39 -19 35 -26 38 -45 20 -124 -8 -37 -65
-177 -120 -295 -57 -122 -87 -190 -86 -195 0 -3 -6 -15 -14 -27 -8 -12 -47
-93 -86 -180 -39 -87 -82 -182 -95 -211 -13 -29 -24 -55 -24 -57 0 -3 -9 -24
-19 -48 -21 -44 -75 -202 -85 -249 -15 -65 -17 -134 -5 -175 12 -44 74 -123
97 -123 6 0 12 -4 12 -9 0 -5 16 -15 35 -22 19 -7 35 -17 35 -21 0 -4 4 -8 9
-8 22 0 81 -48 99 -80 20 -34 44 -116 57 -190 3 -19 8 -48 11 -65 4 -16 7 -41
8 -53 3 -32 16 -38 84 -42 157 -9 208 -5 264 24 70 37 84 39 127 16 44 -22 63
-44 98 -113 15 -28 30 -54 34 -57 3 -3 9 -15 13 -26 10 -32 62 -83 91 -90 40
-10 108 1 162 26 41 20 138 83 153 100 3 3 27 24 55 45 27 22 59 48 70 58 22
20 8 33 139 -125 71 -84 121 -110 214 -110 102 0 142 15 208 78 62 58 109 84
159 88 28 2 124 -22 135 -34 15 -17 111 -53 150 -56 75 -5 118 20 244 140 80
77 117 89 274 92 73 1 135 4 137 6 3 3 23 56 44 119 63 182 90 220 161 225 84
5 255 59 274 85 18 27 8 163 -17 232 -4 9 -10 25 -14 35 -3 9 -7 24 -9 32 -2
8 -7 23 -12 35 -6 11 -20 43 -32 70 -52 119 -135 291 -149 308 -8 9 -11 17 -6
17 4 0 3 6 -2 13 -10 12 -110 199 -146 272 -11 22 -30 57 -43 77 -13 21 -24
44 -24 53 0 8 -5 15 -11 15 -5 0 -8 4 -5 9 3 5 -1 14 -9 21 -8 7 -15 17 -15
22 0 13 -31 79 -45 98 -7 8 -20 39 -31 68 -10 28 -22 52 -28 52 -5 0 -7 3 -3
6 3 4 -1 23 -9 43 -8 19 -17 57 -19 82 -4 40 0 51 21 73 15 14 36 28 48 32 11
4 23 9 26 13 3 3 25 17 50 30 25 13 56 33 69 43 13 10 28 18 32 18 5 0 17 7
26 14 10 8 43 33 73 55 70 51 105 78 149 116 20 17 47 39 60 50 13 11 60 56
105 101 44 44 109 97 142 116 69 40 209 92 224 83 6 -3 10 -2 10 2 0 8 28 14
78 16 12 1 22 3 22 7 0 3 19 6 43 6 57 2 223 19 292 29 17 3 48 8 70 11 56 9
75 21 90 57 12 29 9 76 -9 142 -11 38 -73 168 -106 220 -11 17 -27 46 -37 65
-9 19 -20 37 -23 40 -7 6 -23 45 -18 45 2 0 -6 14 -18 30 -31 45 -56 120 -49
147 9 34 67 63 153 73 26 4 58 8 72 11 44 7 280 21 515 30 278 10 292 11 303
18 6 3 13 2 17 -4 4 -6 12 -7 18 -3 6 4 32 8 57 9 25 0 79 4 120 8 178 17 222
24 263 41 45 18 141 107 198 182 24 32 46 60 49 63 22 22 166 251 174 278 4
12 12 22 17 22 5 0 8 3 7 8 -1 4 12 36 29 72 36 73 57 124 80 190 16 47 18 57
28 155 9 94 24 125 105 211 39 42 60 93 53 129 -2 11 -5 48 -6 81 -1 54 2 67
28 100 16 22 32 41 36 44 24 18 82 183 94 267 2 15 6 44 10 64 14 83 16 123
20 306 4 220 -7 276 -72 356 -13 16 -26 41 -29 55 -4 15 -11 32 -15 38 -5 6
-11 41 -14 79 -9 122 -66 184 -195 211 -102 22 -492 33 -1710 49 -496 7 -493
7 -505 5 -5 -2 -14 -1 -20 0 -10 2 -418 8 -1025 14 -157 2 -294 7 -305 11 -11
5 -56 23 -100 40 -44 18 -89 36 -100 40 -11 5 -22 9 -25 10 -3 1 -50 16 -105
33 -55 18 -110 34 -123 37 -129 24 -189 52 -237 109 -17 20 -39 46 -50 59 -11
13 -31 39 -45 57 -145 194 -272 336 -291 324 -5 -3 -9 0 -9 5 0 17 -32 13 -70
-10z"/>
</g>
</svg>
