<?xml version="1.0" encoding="UTF-8" standalone="no"?>
<!-- Created with Inkscape (http://www.inkscape.org/) -->

<svg
   xmlns:dc="http://purl.org/dc/elements/1.1/"
   xmlns:cc="http://creativecommons.org/ns#"
   xmlns:rdf="http://www.w3.org/1999/02/22-rdf-syntax-ns#"
   xmlns:svg="http://www.w3.org/2000/svg"
   xmlns="http://www.w3.org/2000/svg"
   xmlns:sodipodi="http://sodipodi.sourceforge.net/DTD/sodipodi-0.dtd"
   xmlns:inkscape="http://www.inkscape.org/namespaces/inkscape"
   width="132.24512mm"
   height="119.92023mm"
   viewBox="0 0 132.24512 119.92023"
   version="1.1"
   id="svg8"
   inkscape:version="0.92.1 r15371"
   sodipodi:docname="Logo.svg">
  <defs
     id="defs2" />
  <sodipodi:namedview
     id="base"
     pagecolor="#ffffff"
     bordercolor="#666666"
     borderopacity="1.0"
     inkscape:pageopacity="0.0"
     inkscape:pageshadow="2"
     inkscape:zoom="0.89571167"
     inkscape:cx="210.97671"
     inkscape:cy="286.1773"
     inkscape:document-units="mm"
     inkscape:current-layer="layer5"
     showgrid="false"
     showguides="false"
     inkscape:window-width="1299"
     inkscape:window-height="745"
     inkscape:window-x="-8"
     inkscape:window-y="-8"
     inkscape:window-maximized="1"
     objecttolerance="10000"
     fit-margin-top="0"
     fit-margin-left="0"
     fit-margin-right="0"
     fit-margin-bottom="0" />
  <metadata
     id="metadata5">
    <rdf:RDF>
      <cc:Work
         rdf:about="">
        <dc:format>image/svg+xml</dc:format>
        <dc:type
           rdf:resource="http://purl.org/dc/dcmitype/StillImage" />
        <dc:title />
      </cc:Work>
    </rdf:RDF>
  </metadata>
  <g
     inkscape:groupmode="layer"
     id="layer5"
     inkscape:label="Capa 5"
     sodipodi:insensitive="true"
     style="display:inline"
     transform="translate(-28.856079,-94.59646)">
    <path
       style="display:inline;fill:#dddddd;fill-opacity:1;stroke:#0000d2;stroke-width:0;stroke-miterlimit:4;stroke-dasharray:none;stroke-opacity:0.85929649"
       d="m 131.56628,155.89378 c 1.30451,-0.37736 0.94353,-2.38092 -1.0264,-5.69681 -1.00359,-1.68929 -1.82471,-3.39987 -1.82471,-3.80129 0,-1.19348 1.62746,-1.47253 10.37444,-1.77884 4.95645,-0.17356 8.89059,-0.52356 9.72855,-0.86548 2.54488,-1.03842 7.72282,-9.54943 7.72351,-12.69518 2.6e-4,-1.15562 0.33737,-1.94776 1.15638,-2.71717 0.91372,-0.8584 1.09563,-1.36094 0.86791,-2.39774 -0.21519,-0.97973 -0.0428,-1.5728 0.68096,-2.34325 1.0971,-1.1678 1.85018,-4.90847 1.85425,-9.21034 0.002,-2.10168 -0.22234,-3.07562 -0.90971,-3.94947 -0.5018,-0.63793 -0.91236,-1.78992 -0.91236,-2.55998 0,-1.01838 -0.33649,-1.62064 -1.23417,-2.20894 -1.12663,-0.73836 -3.3225,-0.8343 -25.20384,-1.10118 l -23.96967,-0.29235 -3.87028,-1.30427 c -3.85377,-1.29871 -3.88159,-1.31937 -6.51727,-4.83966 -1.74618,-2.33224 -2.95498,-3.53537 -3.55201,-3.53537 m -37.293282,60.13716 c 0.13888,1.20138 0.21245,1.22628 5.15886,1.74615 2.759868,0.29007 5.152821,0.54667 5.317659,0.57022 0.26339,0.0376 5.036661,3.96765 8.749501,7.20379 1.623309,1.41489 1.61408,1.45343 -2.405121,10.04752 -4.8515,10.37374 -5.023548,11.95437 -1.497999,13.76164 1.507019,0.77253 1.748388,1.14247 2.160259,3.31096 l 0.46369,2.44127 1.993231,0.1433 c 1.09628,0.0788 2.211679,-0.0752 2.47867,-0.34213 0.91068,-0.91069 2.098868,-0.49603 2.857238,0.99714 0.414152,0.81542 0.95776,1.73918 1.208021,2.0528 0.829979,1.04012 2.71625,0.60471 4.808873,-1.11005 v 4e-5 l 2.05056,-1.68028 1.34796,1.68028 c 1.13907,1.41988 1.62436,1.68028 3.13145,1.68028 1.33384,0 2.03348,-0.28753 2.77509,-1.14045 1.11324,-1.28034 2.33591,-1.41907 4.02032,-0.45618 1.79561,1.02646 2.89589,0.80641 4.56178,-0.91235 1.33847,-1.38096 1.83857,-1.59663 3.70225,-1.59663 h 2.15475 l 0.75759,-2.28089 c 0.50524,-1.52114 1.01129,-2.28174 1.51924,-2.28344 0.41891,-0.001 1.55629,-0.22318 2.52751,-0.49286 1.74515,-0.48456 1.76324,-0.51261 1.54271,-2.39239 -0.22953,-1.95646 -1.63495,-5.07629 -5.68611,-12.62226 -1.27963,-2.38353 -2.45754,-4.96761 -2.61757,-5.7424 -0.26465,-1.28122 -0.11371,-1.52579 1.66779,-2.70239 1.07733,-0.71152 3.52716,-2.56892 5.44406,-4.12756 3.85874,-3.13755 5.07281,-3.64476 9.74388,-4.0708 1.75628,-0.16018 3.55249,-0.39516 3.99156,-0.52217 m -73.927702,-1.16016 c -0.0934,-0.80777 0.58483,-2.46777 2.011231,-4.92268 1.620977,-2.78946 2.022718,-3.83332 1.627978,-4.22806 -0.334391,-0.33439 -4.035229,-0.66844 -10.222438,-0.92274 -10.728019,-0.44092 -11.270921,-0.58892 -12.442069,-3.39188 -0.382653,-0.91581 -1.094798,-1.94464 -1.582544,-2.28627 -1.090644,-0.76392 -3.438319,-5.66355 -3.862699,-8.06152 -0.17198,-0.97176 -0.488681,-2.1008 -0.70377,-2.50898 -0.21509,-0.40819 -0.69478,-1.66591 -1.06597,-2.79496 -0.37119,-1.12904 -1.02654,-2.97656 -1.45634,-4.1056 -0.4298,-1.12904 -0.8863,-3.42296 -1.01446,-5.09759 -0.19543,-2.55378 -0.03139,-3.59759 1.01724,-6.47275 1.97259,-5.4085 0.14805,-5.07299 27.834729,-5.11759 l 23.265091,-0.0374 3.736041,-1.46773 c 3.87758,-1.52333 4.838492,-2.33773 7.773052,-6.58782 0.91741,-1.32868 1.81461,-2.13359 2.37821,-2.13359 l -37.293282,60.13716 73.927702,1.16016 z"
       id="path23-5-3-9"
       inkscape:connector-curvature="0"
       sodipodi:nodetypes="csssscsccccscscssccsscssccccscsscsccsccscsccccsscccscccscscsssccsccccc" />
    <path
       style="display:inline;fill:#ff3b3f;fill-opacity:1;stroke:none;stroke-width:0.26458332px;stroke-linecap:butt;stroke-linejoin:miter;stroke-opacity:1"
       d="m 94.93186,94.59646 36.63442,61.29732 -73.927702,-1.16016 z"
       id="path881-4-6"
       inkscape:connector-curvature="0"
       sodipodi:nodetypes="cccc" />
    <path
       style="display:inline;fill:none;fill-opacity:1;stroke:#f58735;stroke-width:2;stroke-linecap:round;stroke-linejoin:round;stroke-miterlimit:4;stroke-dasharray:none;stroke-opacity:1;paint-order:stroke fill markers"
       id="path922-5-6-3"
       sodipodi:type="arc"
       sodipodi:cx="94.752502"
       sodipodi:cy="135.31027"
       sodipodi:rx="33.807869"
       sodipodi:ry="33.355587"
       sodipodi:start="0"
       sodipodi:end="6.2480344"
       sodipodi:open="true"
       d="m 128.56037,135.31027 a 33.807869,33.355587 0 0 1 -33.510777,33.3543 33.807869,33.355587 0 0 1 -34.099738,-32.76809 33.807869,33.355587 0 0 1 32.911468,-33.9302 33.807869,33.355587 0 0 1 34.678167,32.17175" />
    <path
       style="display:inline;fill:#f58735;fill-opacity:1;stroke:none;stroke-width:0.27158639px;stroke-linecap:butt;stroke-linejoin:miter;stroke-opacity:1"
       d="m 50.748255,111.56554 -16.678834,-0.22615 c 0,0 -2.620964,0.45229 -2.859233,0.90456 -0.23827,0.45228 0.238269,1.35684 1.906156,1.80912 1.667886,0.45228 17.393644,0 17.393644,0 0,0 -0.95308,-0.90456 0.238267,-2.48753 z"
       id="path970-8-7-9"
       inkscape:connector-curvature="0" />
    <path
       style="display:inline;fill:#f58735;fill-opacity:1;stroke:none;stroke-width:0.24134457px;stroke-linecap:butt;stroke-linejoin:miter;stroke-opacity:1"
       d="m 56.577335,140.73754 -13.171193,-0.22615 c 0,0 -2.069762,0.45229 -2.257922,0.90456 -0.18816,0.45228 0.18816,1.35684 1.505281,1.80912 1.317121,0.45228 13.735673,0 13.735673,0 0,0 -0.752639,-0.90455 0.188161,-2.48753 z"
       id="path970-4-0-9-6"
       inkscape:connector-curvature="0" />
    <path
       style="display:inline;fill:#f58735;fill-opacity:1;stroke:none;stroke-width:0.25056776px;stroke-linecap:butt;stroke-linejoin:miter;stroke-opacity:1"
       d="m 51.869573,130.91311 -14.197114,-0.22615 c 0,0 -2.230979,0.45229 -2.433795,0.90456 -0.202818,0.45228 0.202816,1.35684 1.62253,1.80912 1.419714,0.45228 14.805561,0 14.805561,0 0,0 -0.811266,-0.90456 0.202818,-2.48753 z"
       id="path970-48-3-4-1"
       inkscape:connector-curvature="0" />
    <path
       style="display:inline;fill:#f58735;fill-opacity:1;stroke:none;stroke-width:0.26976925px;stroke-linecap:butt;stroke-linejoin:miter;stroke-opacity:1"
       d="m 51.131849,120.51069 -16.456386,-0.22615 c 0,0 -2.586009,0.45229 -2.821101,0.90456 -0.235091,0.45228 0.235092,1.35684 1.880734,1.80912 1.645641,0.45228 17.161662,0 17.161662,0 0,0 -0.940367,-0.90456 0.235091,-2.48753 z"
       id="path970-1-0-3-5"
       inkscape:connector-curvature="0" />
    <path
       style="display:inline;fill:#f58735;fill-opacity:1;stroke:none;stroke-width:0.23690498px;stroke-linecap:butt;stroke-linejoin:miter;stroke-opacity:1"
       d="m 133.77455,140.41003 12.68114,-0.22634 c 0,0 1.99275,0.45264 2.17392,0.90527 0.18114,0.45264 -0.18117,1.3579 -1.44929,1.81054 -1.26811,0.45263 -13.2246,0 -13.2246,0 0,0 0.72463,-0.90528 -0.18117,-2.48947 z"
       id="path970-6-51-2-18"
       inkscape:connector-curvature="0" />
    <path
       style="display:inline;fill:#f58735;fill-opacity:1;stroke:none;stroke-width:0.25001955px;stroke-linecap:butt;stroke-linejoin:miter;stroke-opacity:1"
       d="m 138.13555,130.69281 14.2022,-0.22508 c 0,0 2.23177,0.45015 2.43467,0.90029 0.20287,0.45013 -0.2029,1.35042 -1.62313,1.80056 -1.42021,0.45015 -14.81085,0 -14.81085,0 0,0 0.81155,-0.90029 -0.20289,-2.47577 z"
       id="path970-6-7-1-1-9"
       inkscape:connector-curvature="0" />
    <path
       style="display:inline;fill:#f58735;fill-opacity:1;stroke:none;stroke-width:0.26537421px;stroke-linecap:butt;stroke-linejoin:miter;stroke-opacity:1"
       d="m 139.51266,120.7506 16.10459,-0.22362 c 0,0 2.53072,0.44724 2.76079,0.89445 0.23005,0.44722 -0.23007,1.34167 -1.84054,1.7889 -1.61046,0.44722 -16.79477,0 -16.79477,0 0,0 0.92026,-0.89446 -0.23007,-2.45973 z"
       id="path970-6-9-2-8-1"
       inkscape:connector-curvature="0" />
    <path
       style="display:inline;fill:#f58735;fill-opacity:1;stroke:none;stroke-width:0.26978397px;stroke-linecap:butt;stroke-linejoin:miter;stroke-opacity:1"
       d="m 139.74476,111.48116 16.67551,-0.2232 c 0,0 2.62044,0.4464 2.85866,0.89278 0.23821,0.44637 -0.23822,1.33915 -1.90579,1.78554 -1.66754,0.44639 -17.39015,0 -17.39015,0 0,0 0.95288,-0.89278 -0.23823,-2.45512 z"
       id="path970-6-5-4-9-6"
       inkscape:connector-curvature="0" />
    <path
       style="display:inline;fill:#f58735;fill-opacity:1;stroke:none;stroke-width:0.27158639px;stroke-linecap:butt;stroke-linejoin:miter;stroke-opacity:1"
       d="m 51.652812,106.36433 -16.101396,-0.22615 c 0,0 -2.530224,0.45229 -2.760243,0.90456 -0.230022,0.45228 0.230019,1.35684 1.840163,1.80912 1.610142,0.45228 16.79146,0 16.79146,0 0,0 -0.920083,-0.90456 0.230016,-2.48753 z"
       id="path970-0-4"
       inkscape:connector-curvature="0" />
    <path
       style="display:inline;fill:#f58735;fill-opacity:1;stroke:none;stroke-width:0.24134457px;stroke-linecap:butt;stroke-linejoin:miter;stroke-opacity:1"
       d="m 54.089797,135.53632 -13.556151,-0.22614 c 0,0 -2.130254,0.45228 -2.323914,0.90456 -0.193659,0.45227 0.19366,1.35683 1.549276,1.80912 1.355617,0.45227 14.137127,0 14.137127,0 0,0 -0.774636,-0.90456 0.193662,-2.48754 z"
       id="path970-4-4-3"
       inkscape:connector-curvature="0" />
    <path
       style="display:inline;fill:#f58735;fill-opacity:1;stroke:none;stroke-width:0.25056776px;stroke-linecap:butt;stroke-linejoin:miter;stroke-opacity:1"
       d="M 51.643432,125.48575 36.483924,125.2596 c 0,0 -2.382214,0.45229 -2.598778,0.90456 -0.216566,0.45228 0.216564,1.35684 1.732518,1.80912 1.515954,0.45228 15.809205,0 15.809205,0 0,0 -0.866262,-0.90456 0.216563,-2.48753 z"
       id="path970-48-4-1"
       inkscape:connector-curvature="0" />
    <path
       style="display:inline;fill:#f58735;fill-opacity:1;stroke:none;stroke-width:0.26976925px;stroke-linecap:butt;stroke-linejoin:miter;stroke-opacity:1"
       d="M 49.548871,115.98789 34.05488,115.76174 c 0,0 -2.434774,0.45229 -2.656117,0.90456 -0.221343,0.45228 0.221343,1.35684 1.770745,1.80912 1.549403,0.45228 16.158024,0 16.158024,0 0,0 -0.885376,-0.90456 0.221339,-2.48753 z"
       id="path970-1-5-5"
       inkscape:connector-curvature="0" />
    <path
       style="display:inline;fill:#f58735;fill-opacity:1;stroke:none;stroke-width:0.23690498px;stroke-linecap:butt;stroke-linejoin:miter;stroke-opacity:1"
       d="m 136.26208,135.20881 14.0285,-0.22633 c 0,0 2.20447,0.45263 2.40489,0.90526 0.20039,0.45264 -0.20042,1.3579 -1.60327,1.81055 -1.40285,0.45262 -14.6297,0 -14.6297,0 0,0 0.80162,-0.90528 -0.20042,-2.48948 z"
       id="path970-6-79-4"
       inkscape:connector-curvature="0" />
    <path
       style="display:inline;fill:#f58735;fill-opacity:1;stroke:none;stroke-width:0.25001955px;stroke-linecap:butt;stroke-linejoin:miter;stroke-opacity:1"
       d="m 139.04011,125.71773 14.77963,-0.22508 c 0,0 2.32251,0.45015 2.53366,0.90029 0.21112,0.45013 -0.21115,1.35042 -1.68912,1.80056 -1.47795,0.45015 -15.41303,0 -15.41303,0 0,0 0.84454,-0.90029 -0.21114,-2.47577 z"
       id="path970-6-7-18-06"
       inkscape:connector-curvature="0" />
    <path
       style="display:inline;fill:#f58735;fill-opacity:1;stroke:none;stroke-width:0.26537421px;stroke-linecap:butt;stroke-linejoin:miter;stroke-opacity:1"
       d="m 139.96494,115.77552 16.68202,-0.22362 c 0,0 2.62146,0.44724 2.85979,0.89445 0.2383,0.44722 -0.23833,1.34167 -1.90653,1.7889 -1.66821,0.44722 -17.39696,0 -17.39696,0 0,0 0.95326,-0.89446 -0.23832,-2.45973 z"
       id="path970-6-9-3-7"
       inkscape:connector-curvature="0" />
    <path
       style="display:inline;fill:#f58735;fill-opacity:1;stroke:none;stroke-width:0.26978394px;stroke-linecap:butt;stroke-linejoin:miter;stroke-opacity:1"
       d="m 139.06634,106.50609 15.32814,-0.2232 c 0,0 2.40872,0.4464 2.6277,0.89278 0.21895,0.44637 -0.21898,1.33915 -1.75181,1.78554 -1.5328,0.44639 -15.98505,0 -15.98505,0 0,0 0.87589,-0.89278 -0.21898,-2.45512 z"
       id="path970-6-5-2-9"
       inkscape:connector-curvature="0" />
    <path
       style="display:inline;fill:#f58735;fill-opacity:1;stroke:none;stroke-width:0.26458332px;stroke-linecap:butt;stroke-linejoin:miter;stroke-opacity:1"
       d="m 112.7629,106.542 21.41865,-0.105 c 0,0 2.41484,0.105 2.51984,0.83995 0.10499,0.73495 -2.30986,1.67989 -2.30986,1.67989 l -18.05886,0.105 c 0,0 -2.72982,-2.93981 -3.56977,-2.51984 z"
       id="path1156-8-5-4"
       inkscape:connector-curvature="0" />
    <path
       style="display:inline;fill:#f58735;fill-opacity:1;stroke:none;stroke-width:0.26458332px;stroke-linecap:butt;stroke-linejoin:miter;stroke-opacity:1"
       d="m 119.27249,111.58168 14.27909,-0.10499 c 0,0 3.56978,0.41997 3.77977,1.04993 0.20998,0.62996 -0.73496,1.67989 -2.09987,1.5749 -1.36491,-0.10499 -13.54415,0 -13.54415,0 0,0 0.52497,0 -2.41484,-2.51984 z"
       id="path1158-3-0-7-5"
       inkscape:connector-curvature="0" />
    <path
       style="display:inline;fill:#f58735;fill-opacity:1;stroke:none;stroke-width:0.26458332px;stroke-linecap:butt;stroke-linejoin:miter;stroke-opacity:1"
       d="m 122.94725,116.0964 11.86426,-0.105 c 0,0 3.67477,0.31498 3.56977,1.46991 -0.10499,1.15493 -3.77976,1.4699 -3.77976,1.4699 h -9.65939 c 0,0 -0.73495,-0.83994 -1.99488,-2.83481 z"
       id="path1160-9-7-8-62"
       inkscape:connector-curvature="0" />
    <path
       style="display:inline;fill:#f58735;fill-opacity:1;stroke:none;stroke-width:0.26458332px;stroke-linecap:butt;stroke-linejoin:miter;stroke-opacity:1"
       d="m 125.67708,120.92609 h 7.9795 c 0,0 3.46478,0.20999 3.77976,1.36491 0.31498,1.15493 -3.67477,1.57491 -3.67477,1.57491 h -6.40459 c 0,0 1.04993,1.88987 -1.6799,-2.93982 z"
       id="path1162-8-9-8-0"
       inkscape:connector-curvature="0" />
    <path
       style="display:inline;fill:#f58735;fill-opacity:1;stroke:none;stroke-width:0.26458332px;stroke-linecap:butt;stroke-linejoin:miter;stroke-opacity:1"
       d="m 128.82688,128.90559 4.61971,0.10499 c 0,0 2.30986,0 3.2548,-0.94494 0.94494,-0.94494 -1.99488,-1.78489 -1.99488,-1.78489 l -6.92956,-0.31498 c 0,0 0.73495,1.6799 1.04993,2.93982 z"
       id="path1164-1-1-7-14"
       inkscape:connector-curvature="0" />
    <path
       style="display:inline;fill:#f58735;fill-opacity:1;stroke:none;stroke-width:0.26458332px;stroke-linecap:butt;stroke-linejoin:miter;stroke-opacity:1"
       d="m 128.93188,131.21544 h 4.93469 c 0,0 2.09986,0.41998 2.09986,0.94494 0,0.52497 -0.83994,1.36492 -1.5749,1.6799 -0.73495,0.31498 -5.45965,0.10499 -5.45965,0.10499 z"
       id="path1168-2-8-4-3"
       inkscape:connector-curvature="0" />
    <path
       style="display:inline;fill:#f58735;fill-opacity:1;stroke:none;stroke-width:0.26458332px;stroke-linecap:butt;stroke-linejoin:miter;stroke-opacity:1"
       d="m 129.14186,138.35499 2.83482,-0.20999 c 0,0 1.88989,-0.52496 1.99488,-1.04993 0.10499,-0.52497 -1.78489,-1.04993 -1.78489,-1.04993 h -3.1498 c 0,0 0,1.5749 0.10499,2.30985 z"
       id="path1170-0-0-3-4"
       inkscape:connector-curvature="0" />
    <path
       style="display:inline;fill:#f58735;fill-opacity:1;stroke:none;stroke-width:0.26458332px;stroke-linecap:butt;stroke-linejoin:miter;stroke-opacity:1"
       d="m 128.82688,140.45486 c 0,0 3.1498,0.20999 2.83483,1.15493 -0.31499,0.94494 -3.35979,1.25992 -3.35979,1.25992 0,0 0.20999,-0.31498 0.52496,-2.41485 z"
       id="path1172-5-5-4-8"
       inkscape:connector-curvature="0" />
    <path
       style="display:inline;fill:#f58735;fill-opacity:1;stroke:none;stroke-width:0.26458332px;stroke-linecap:butt;stroke-linejoin:miter;stroke-opacity:1"
       d="m 77.654268,106.52716 -21.418992,-0.105 c 0,0 -2.414879,0.105 -2.519884,0.83995 -0.104989,0.73495 2.3099,1.67989 2.3099,1.67989 l 18.059144,0.105 c 0,0 2.72987,-2.93981 3.569832,-2.51984 z"
       id="path1156-9-8-9"
       inkscape:connector-curvature="0" />
    <path
       style="display:inline;fill:#f58735;fill-opacity:1;stroke:none;stroke-width:0.26458332px;stroke-linecap:butt;stroke-linejoin:miter;stroke-opacity:1"
       d="m 71.144573,111.56684 -14.279319,-0.10499 c 0,0 -3.569838,0.41997 -3.779832,1.04993 -0.209981,0.62996 0.734975,1.67989 2.099905,1.5749 1.364933,-0.10499 13.544368,0 13.544368,0 0,0 -0.524981,0 2.414878,-2.51984 z"
       id="path1158-3-6-5-0"
       inkscape:connector-curvature="0" />
    <path
       style="display:inline;fill:#f58735;fill-opacity:1;stroke:none;stroke-width:0.26458332px;stroke-linecap:butt;stroke-linejoin:miter;stroke-opacity:1"
       d="m 67.469754,116.08156 -11.864451,-0.105 c 0,0 -3.674829,0.31498 -3.569827,1.46991 0.104993,1.15493 3.779822,1.4699 3.779822,1.4699 h 9.659546 c 0,0 0.734962,-0.83994 1.99491,-2.83481 z"
       id="path1160-9-5-6-4"
       inkscape:connector-curvature="0" />
    <path
       style="display:inline;fill:#f58735;fill-opacity:1;stroke:none;stroke-width:0.26458332px;stroke-linecap:butt;stroke-linejoin:miter;stroke-opacity:1"
       d="m 64.739881,120.91125 h -7.979627 c 0,0 -3.464838,0.20999 -3.779824,1.36491 -0.314984,1.15493 3.674832,1.57491 3.674832,1.57491 h 6.404692 c 0,0 -1.049946,1.88987 1.679927,-2.93982 z"
       id="path1162-8-3-9-6"
       inkscape:connector-curvature="0" />
    <path
       style="display:inline;fill:#f58735;fill-opacity:1;stroke:none;stroke-width:0.26458332px;stroke-linecap:butt;stroke-linejoin:miter;stroke-opacity:1"
       d="m 61.59003,128.89075 -4.619784,0.10499 c 0,0 -2.309897,0 -3.254854,-0.94494 -0.944953,-0.94494 1.994914,-1.78489 1.994914,-1.78489 l 6.929673,-0.31498 c 0,0 -0.734963,1.6799 -1.049949,2.93982 z"
       id="path1164-1-7-1-6"
       inkscape:connector-curvature="0" />
    <path
       style="display:inline;fill:#f58735;fill-opacity:1;stroke:none;stroke-width:0.26458332px;stroke-linecap:butt;stroke-linejoin:miter;stroke-opacity:1"
       d="m 61.48503,131.2006 h -4.93477 c 0,0 -2.099893,0.41998 -2.099893,0.94494 0,0.52497 0.839952,1.36492 1.574925,1.6799 0.734962,0.31498 5.459738,0.10499 5.459738,0.10499 z"
       id="path1168-2-5-9-9"
       inkscape:connector-curvature="0" />
    <path
       style="display:inline;fill:#f58735;fill-opacity:1;stroke:none;stroke-width:0.26458332px;stroke-linecap:butt;stroke-linejoin:miter;stroke-opacity:1"
       d="m 61.275046,138.34015 -2.834865,-0.20999 c 0,0 -1.889921,-0.52496 -1.994913,-1.04993 -0.104992,-0.52497 1.784919,-1.04993 1.784919,-1.04993 h 3.149851 c 0,0 0,1.5749 -0.104992,2.30985 z"
       id="path1170-0-6-3-67"
       inkscape:connector-curvature="0" />
    <path
       style="display:inline;fill:#f58735;fill-opacity:1;stroke:none;stroke-width:0.26458332px;stroke-linecap:butt;stroke-linejoin:miter;stroke-opacity:1"
       d="m 61.59003,140.44002 c 0,0 -3.149849,0.20999 -2.834875,1.15493 0.314997,0.94494 3.359845,1.25992 3.359845,1.25992 0,0 -0.209994,-0.31498 -0.52497,-2.41485 z"
       id="path1172-5-4-7-5"
       inkscape:connector-curvature="0" />
    <path
       style="display:inline;fill:#f58735;fill-opacity:1;stroke:none;stroke-width:0.26458332px;stroke-linecap:butt;stroke-linejoin:miter;stroke-opacity:1"
       d="m 87.550328,177.64021 -2.452601,12.85757 c 0,0 -0.14864,3.27013 0,4.16198 0.148641,0.89185 2.452601,-1.11482 2.452601,-1.11482 0,0 0.891849,-2.22963 0.891849,-2.67556 0,-0.44593 2.675573,-12.6346 2.675573,-12.6346 0,0 -1.48643,0.14865 -2.081,0.44593 -0.594573,0.29728 -1.114823,-1.70939 -1.486422,-1.0405 z"
       id="path1506-9-7-29"
       inkscape:connector-curvature="0" />
    <path
       style="display:inline;fill:#f58735;fill-opacity:1;stroke:none;stroke-width:0.26458332px;stroke-linecap:butt;stroke-linejoin:miter;stroke-opacity:1"
       d="m 97.43505,178.53207 0.0743,14.34398 c 0,0 -0.74322,3.12149 -1.26347,2.89853 -0.52024,-0.22297 -2.08099,-2.081 -2.08099,-2.081 l -0.37161,-14.78991 c 0,0 3.56742,-0.59457 3.64175,-0.3716 z"
       id="path1508-1-1-6"
       inkscape:connector-curvature="0" />
    <path
       style="display:inline;fill:#f58735;fill-opacity:1;stroke:none;stroke-width:0.26458332px;stroke-linecap:butt;stroke-linejoin:miter;stroke-opacity:1"
       d="m 100.03628,178.08614 2.60124,14.56695 c 0,0 2.00667,1.93235 2.52692,1.4121 0.52025,-0.52025 1.0405,-2.37828 0.59457,-2.97285 -0.44593,-0.59456 -2.97284,-13.52645 -2.97284,-13.52645 0,0 -1.41211,0.59457 -1.33779,0.81754 0.0743,0.22296 -1.4121,-0.74322 -1.4121,-0.29729 z"
       id="path1510-2-3-3"
       inkscape:connector-curvature="0" />
    <path
       style="display:inline;fill:#f58735;fill-opacity:1;stroke:none;stroke-width:0.26458332px;stroke-linecap:butt;stroke-linejoin:miter;stroke-opacity:1"
       d="m 110.14396,176.37675 5.49976,9.8104 c 0,0 1.33779,0.52024 1.78371,0.59457 0.44593,0.0743 0.37161,-2.30396 0.37161,-2.30396 l -5.20248,-9.51311 c 0,0 -1.18914,0.52025 -1.18914,0.96618 0,0.44592 -1.26346,0 -1.26346,0.44592 z"
       id="path1512-8-7-09"
       inkscape:connector-curvature="0" />
    <path
       style="display:inline;fill:#f58735;fill-opacity:1;stroke:none;stroke-width:0.26458332px;stroke-linecap:butt;stroke-linejoin:miter;stroke-opacity:1"
       d="m 107.54272,175.70786 4.68223,11.81707 c 0,0 0.22297,2.97285 -0.22296,2.97285 -0.44593,0 -2.52692,-0.89186 -2.82421,-1.78371 -0.29728,-0.89186 -4.60791,-11.66843 -4.60791,-11.66843 0,0 1.63507,-0.59456 1.78371,-0.14864 0.14864,0.44593 0.66889,-1.56074 1.18914,-1.18914 z"
       id="path1514-5-9-3"
       inkscape:connector-curvature="0" />
    <path
       style="display:inline;fill:#f58735;fill-opacity:1;stroke:none;stroke-width:0.26458332px;stroke-linecap:butt;stroke-linejoin:miter;stroke-opacity:1"
       d="m 76.550786,174.51873 -3.864695,8.24964 c 0,0 -0.743211,2.67556 0.07432,2.52692 0.817534,-0.14864 2.378276,-1.11481 2.378276,-1.11481 l 4.23631,-8.7699 c 0,0 -1.4121,-0.14864 -1.635069,0.14864 -0.222959,0.29729 -0.817531,-1.11482 -1.189142,-1.04049 z"
       id="path1516-4-6-1"
       inkscape:connector-curvature="0" />
    <path
       style="display:inline;fill:#f58735;fill-opacity:1;stroke:none;stroke-width:0.26458332px;stroke-linecap:butt;stroke-linejoin:miter;stroke-opacity:1"
       d="m 81.381668,177.04564 -4.23631,11.29682 c 0,0 -0.445921,2.82421 0,3.12149 0.445939,0.29728 3.047169,-2.37828 3.047169,-2.37828 l 4.459269,-11.51978 -2.006669,0.14864 c 0,0 -0.817531,-0.74321 -1.263459,-0.66889 z"
       id="path1520-8-3-2"
       inkscape:connector-curvature="0" />
    <path
       style="display:inline;fill:#f58735;fill-opacity:1;stroke:none;stroke-width:0.26458332px;stroke-linecap:butt;stroke-linejoin:miter;stroke-opacity:1"
       d="m 80.266856,166.26908 -2.081,4.31062 c 0,0 -0.445929,2.37828 -0.22296,2.30396 0.22296,-0.0743 1.560751,-0.0743 2.526919,-0.74321 0.966182,-0.66889 2.229631,-5.05384 2.229631,-5.05384 z"
       id="path1522-2-7-2"
       inkscape:connector-curvature="0" />
    <path
       style="display:inline;fill:#f58735;fill-opacity:1;stroke:none;stroke-width:0.26458332px;stroke-linecap:butt;stroke-linejoin:miter;stroke-opacity:1"
       d="m 84.577477,167.82982 -1.858031,4.83087 c 0,0 0,1.85804 0.668901,1.85804 0.66888,0 2.155309,-0.96618 2.155309,-0.96618 l 1.635062,-5.12816 z"
       id="path1524-7-0-9"
       inkscape:connector-curvature="0" />
    <path
       style="display:inline;fill:#f58735;fill-opacity:1;stroke:none;stroke-width:0.26458332px;stroke-linecap:butt;stroke-linejoin:miter;stroke-opacity:1"
       d="m 89.1854,168.94464 -0.668904,4.90519 c 0,0 -0.0743,2.52692 0.966184,2.52692 1.0405,0 1.63507,-2.00667 1.63507,-2.00667 l 0.89185,-4.9052 z"
       id="path1526-9-0-1"
       inkscape:connector-curvature="0" />
    <path
       style="display:inline;fill:#f58735;fill-opacity:1;stroke:none;stroke-width:0.26458332px;stroke-linecap:butt;stroke-linejoin:miter;stroke-opacity:1"
       d="m 93.94195,169.39056 0.0743,5.35113 c 0,0 0.74321,1.93235 1.56074,1.48642 0.81753,-0.44593 1.56075,-1.4121 1.56075,-1.4121 v -5.20248 z"
       id="path1528-7-9-5"
       inkscape:connector-curvature="0" />
    <path
       style="display:inline;fill:#f58735;fill-opacity:1;stroke:none;stroke-width:0.26458332px;stroke-linecap:butt;stroke-linejoin:miter;stroke-opacity:1"
       d="m 98.77283,169.31624 0.74321,6.09434 c 0,0 0.14864,0.74321 0.66889,0.66889 0.52024,-0.0743 0.96617,-1.4121 0.96617,-1.4121 l -0.44593,-5.49977 z"
       id="path1530-0-2-0"
       inkscape:connector-curvature="0" />
    <path
       style="display:inline;fill:#f58735;fill-opacity:1;stroke:none;stroke-width:0.26458332px;stroke-linecap:butt;stroke-linejoin:miter;stroke-opacity:1"
       d="m 102.41456,168.79599 1.48642,4.9052 c 0,0 1.18914,1.48643 1.56075,1.11482 0.3716,-0.37161 0.81753,-1.63507 0.81753,-1.63507 l -1.63507,-4.83087 z"
       id="path1532-1-0-1"
       inkscape:connector-curvature="0" />
    <path
       style="display:inline;fill:#f58735;fill-opacity:1;stroke:none;stroke-width:0.26458332px;stroke-linecap:butt;stroke-linejoin:miter;stroke-opacity:1"
       d="m 106.57654,167.45821 2.22964,5.05384 c 0,0 1.56074,1.56075 1.70939,1.26346 0.14864,-0.29728 0.14864,-2.15531 0.14864,-2.15531 l -2.22964,-4.68223 z"
       id="path1534-6-2-5"
       inkscape:connector-curvature="0" />
    <path
       style="display:inline;fill:none;fill-opacity:1;stroke:#999fad;stroke-width:1;stroke-linecap:round;stroke-linejoin:round;stroke-miterlimit:4;stroke-dasharray:none;stroke-opacity:1;paint-order:stroke fill markers"
       id="path1590-9-3-6"
       sodipodi:type="arc"
       sodipodi:cx="95.198128"
       sodipodi:cy="135.39665"
       sodipodi:rx="30.868053"
       sodipodi:ry="30.349258"
       sodipodi:start="0"
       sodipodi:end="6.2480344"
       sodipodi:open="true"
       d="m 126.06618,135.39665 a 30.868053,30.349258 0 0 1 -30.596796,30.34809 30.868053,30.349258 0 0 1 -31.134542,-29.81471 30.868053,30.349258 0 0 1 30.0496,-30.87209 30.868053,30.349258 0 0 1 31.662668,29.27213" />
    <path
       style="display:inline;fill:#dddddd;fill-opacity:1;stroke:none;stroke-width:0.5;stroke-linecap:round;stroke-linejoin:round;stroke-miterlimit:4;stroke-dasharray:none;stroke-opacity:1;paint-order:stroke fill markers"
       id="path1611-1-8-05"
       sodipodi:type="arc"
       sodipodi:cx="94.600082"
       sodipodi:cy="135.36317"
       sodipodi:rx="19.736708"
       sodipodi:ry="13.157803"
       sodipodi:start="0"
       sodipodi:end="6.2480344"
       sodipodi:open="true"
       d="M 114.33679,135.36317 A 19.736708,13.157803 0 0 1 94.773521,148.52047 19.736708,13.157803 0 0 1 74.866423,135.59442 19.736708,13.157803 0 0 1 94.07982,122.20994 19.736708,13.157803 0 0 1 114.3246,134.90076" />
    <text
       xml:space="preserve"
       style="font-style:normal;font-weight:normal;font-size:10.58333302px;line-height:1.25;font-family:sans-serif;letter-spacing:0px;word-spacing:0px;display:inline;fill:#000000;fill-opacity:1;stroke:none;stroke-width:0.26458332"
       x="76.181747"
       y="139.39046"
       id="text2104-3"><tspan
         sodipodi:role="line"
         id="tspan2102-3"
         x="76.181747"
         y="139.39046"
         style="font-style:normal;font-variant:normal;font-weight:normal;font-stretch:normal;font-size:16.93333244px;font-family:Vivaldi;-inkscape-font-specification:Vivaldi;stroke-width:0.26458332">GP</tspan></text>
    <text
       xml:space="preserve"
       style="font-style:normal;font-weight:normal;font-size:10.58333302px;line-height:1.25;font-family:sans-serif;letter-spacing:0px;word-spacing:0px;display:inline;fill:#000000;fill-opacity:1;stroke:none;stroke-width:0.26458332"
       x="49.478302"
       y="210.15933"
       id="text2108-4"><tspan
         sodipodi:role="line"
         id="tspan2106-79"
         x="49.478302"
         y="210.15933"
         style="font-style:normal;font-variant:normal;font-weight:normal;font-stretch:normal;font-size:16.93333244px;font-family:Vivaldi;-inkscape-font-specification:Vivaldi;stroke-width:0.26458332">Ger. Pensiones</tspan></text>
  </g>
</svg>
