<?xml version="1.0" encoding="iso-8859-1"?>
<!-- Generator: Adobe Illustrator 16.0.0, SVG Export Plug-In . SVG Version: 6.00 Build 0)  -->
<!DOCTYPE svg PUBLIC "-//W3C//DTD SVG 1.1//EN" "http://www.w3.org/Graphics/SVG/1.1/DTD/svg11.dtd">
<svg version="1.1" id="Capa_1" xmlns="http://www.w3.org/2000/svg" xmlns:xlink="http://www.w3.org/1999/xlink" x="0px" y="0px"
	 width="441.4px" height="441.4px" viewBox="0 0 441.4 441.4" style="enable-background:new 0 0 441.4 441.4;" xml:space="preserve"
	>
<g>
	<g>
		<path d="M295.2,415.201h-33.662l-5.305-387.439c-0.022-1.641-1.359-2.959-3-2.959h-6.539C243.866,18.728,234.063,0,220.7,0
			c-13.363,0-23.166,18.729-25.994,24.803h-6.539c-1.641,0-2.978,1.318-3,2.959l-5.305,387.439H146.2c-1.657,0-3,1.343-3,3V438.4
			c0,1.657,1.343,3,3,3h149c1.657,0,3-1.343,3-3v-20.199C298.2,416.544,296.857,415.201,295.2,415.201z M220.7,6
			c7.951,0,15.455,11.271,19.329,18.803h-38.658C205.245,17.271,212.75,6,220.7,6z M186.815,345.647
			c0.315,0.111,0.65,0.185,1.003,0.185H220.7c1.656,0,3-1.343,3-3s-1.344-3-3-3h-32.882c-0.325,0-0.632,0.064-0.926,0.16
			l0.416-30.404c0.167,0.028,0.335,0.051,0.51,0.051H220.7c1.656,0,3-1.342,3-3c0-1.656-1.344-3-3-3h-32.882
			c-0.147,0-0.288,0.022-0.429,0.043l0.414-30.237c0.005,0,0.01,0.001,0.015,0.001H220.7c1.656,0,3-1.344,3-3c0-1.657-1.344-3-3-3
			h-32.814l0.414-30.193h32.4c1.656,0,3-1.343,3-3c0-1.656-1.344-3-3-3h-32.319l0.414-30.193H220.7c1.656,0,3-1.344,3-3
			c0-1.657-1.344-3-3-3h-31.823l0.414-30.194H220.7c1.656,0,3-1.343,3-3c0-1.656-1.344-3-3-3h-31.328l0.414-30.193H220.7
			c1.656,0,3-1.344,3-3c0-1.657-1.344-3-3-3h-30.832l0.414-30.193H220.7c1.656,0,3-1.344,3-3c0-1.657-1.344-3-3-3h-30.336
			l0.414-30.194H220.7c1.656,0,3-1.343,3-3c0-1.656-1.344-3-3-3h-29.841l0.267-19.479h59.148l5.264,384.398h-69.675L186.815,345.647
			z M292.2,435.4h-143v-14.199h33.621h75.758c0.007,0.001,0.015,0.001,0.021,0H292.2V435.4z"/>
		<path d="M228.309,386.676h-32.882c-1.657,0-3,1.344-3,3c0,1.657,1.343,3,3,3h32.882c1.656,0,3-1.343,3-3
			C231.309,388.02,229.965,386.676,228.309,386.676z"/>
		<path d="M244.748,72.284h-32.882c-1.657,0-3,1.344-3,3c0,1.657,1.343,3,3,3h32.882c1.657,0,3-1.343,3-3
			C247.748,73.628,246.405,72.284,244.748,72.284z"/>
		<path d="M244.748,108.478h-32.882c-1.657,0-3,1.343-3,3c0,1.656,1.343,3,3,3h32.882c1.657,0,3-1.344,3-3
			C247.748,109.821,246.405,108.478,244.748,108.478z"/>
		<path d="M244.748,144.672h-32.882c-1.657,0-3,1.343-3,3c0,1.656,1.343,3,3,3h32.882c1.657,0,3-1.344,3-3
			C247.748,146.014,246.405,144.672,244.748,144.672z"/>
		<path d="M244.748,180.865h-32.882c-1.657,0-3,1.344-3,3c0,1.657,1.343,3,3,3h32.882c1.657,0,3-1.343,3-3
			C247.748,182.209,246.405,180.865,244.748,180.865z"/>
		<path d="M244.748,217.06h-32.882c-1.657,0-3,1.343-3,3c0,1.656,1.343,3,3,3h32.882c1.657,0,3-1.344,3-3
			C247.748,218.403,246.405,217.06,244.748,217.06z"/>
		<path d="M244.748,253.258h-32.882c-1.657,0-3,1.344-3,3c0,1.657,1.343,3,3,3h32.882c1.657,0,3-1.343,3-3
			C247.748,254.602,246.405,253.258,244.748,253.258z"/>
		<path d="M244.748,289.452h-32.882c-1.657,0-3,1.343-3,3s1.343,3,3,3h32.882c1.657,0,3-1.343,3-3S246.405,289.452,244.748,289.452z
			"/>
		<path d="M244.748,325.646h-32.882c-1.657,0-3,1.343-3,3c0,1.656,1.343,3,3,3h32.882c1.657,0,3-1.344,3-3
			C247.748,326.988,246.405,325.646,244.748,325.646z"/>
		<path d="M244.748,361.84h-32.882c-1.657,0-3,1.344-3,3c0,1.657,1.343,3,3,3h32.882c1.657,0,3-1.343,3-3
			C247.748,363.184,246.405,361.84,244.748,361.84z"/>
	</g>
</g>
<g>
</g>
<g>
</g>
<g>
</g>
<g>
</g>
<g>
</g>
<g>
</g>
<g>
</g>
<g>
</g>
<g>
</g>
<g>
</g>
<g>
</g>
<g>
</g>
<g>
</g>
<g>
</g>
<g>
</g>
</svg>
